<?xml version="1.0" encoding="UTF-8"?>
<svg id="Layer_2" data-name="Layer 2" xmlns="http://www.w3.org/2000/svg" viewBox="0 0 364.12 59.23">
  <defs>
    <style>
      .cls-1 {
        fill: #fff;
      }
    </style>
  </defs>
  <g id="Layer_1-2" data-name="Layer 1">
    <g>
      <path class="cls-1" d="M37.53,17.59c1.32,2.93,1.99,6.36,1.99,10.29s-.66,7.35-1.99,10.29c-1.32,2.93-3.16,5.19-5.5,6.77s-5.02,2.38-8.05,2.38-5.89-.96-8.3-2.87c-2.41-1.92-4.14-4.74-5.18-8.48h-.43v23.27H0V9.58h9.79l.28,10.29h.43c1.04-3.78,2.77-6.63,5.18-8.55,2.41-1.92,5.18-2.87,8.3-2.87s5.71.79,8.05,2.38,4.17,3.84,5.5,6.77ZM29.37,27.88c0-3.88-.88-6.92-2.62-9.12-1.75-2.2-4.09-3.3-7.02-3.3s-5.21.97-6.99,2.91c-1.77,1.94-2.66,4.4-2.66,7.38v4.33c0,2.93.89,5.37,2.66,7.31,1.77,1.94,4.1,2.91,6.99,2.91s5.27-1.1,7.02-3.3c1.75-2.2,2.62-5.24,2.62-9.12Z"/>
      <path class="cls-1" d="M57.74,14.9c1.09-2.08,2.66-3.59,4.72-4.54,2.06-.95,4.88-1.42,8.48-1.42v8.51c-3.97.24-7.07.77-9.29,1.6-2.22.83-3.88,2.18-4.97,4.04-1.09,1.87-1.7,4.53-1.84,7.98v15.11h-10.07V9.58h9.79l.28,14.05h.43c.57-3.74,1.4-6.64,2.48-8.73Z"/>
      <path class="cls-1" d="M74.73,38.09c-1.77-2.98-2.66-6.43-2.66-10.36s.89-7.21,2.66-10.14c1.77-2.93,4.19-5.19,7.24-6.77s6.42-2.38,10.11-2.38,7.05.79,10.07,2.38c3.03,1.58,5.43,3.84,7.2,6.77,1.77,2.93,2.66,6.31,2.66,10.14s-.88,7.38-2.62,10.36c-1.75,2.98-4.15,5.26-7.2,6.85s-6.42,2.38-10.11,2.38-7.06-.79-10.11-2.38-5.46-3.87-7.24-6.85ZM101.79,27.74c0-3.78-.86-6.67-2.59-8.65-1.73-1.99-4.1-2.98-7.13-2.98s-5.47.99-7.2,2.98c-1.73,1.99-2.59,4.87-2.59,8.65s.86,6.83,2.59,8.87c1.73,2.03,4.13,3.05,7.2,3.05s5.4-1.02,7.13-3.05c1.73-2.03,2.59-4.99,2.59-8.87Z"/>
      <path class="cls-1" d="M177.66,14.68c1.11,2.03,1.67,4.42,1.67,7.17v24.33h-10.07v-20.5c0-2.93-.67-5.21-2.02-6.85-1.35-1.63-3.23-2.45-5.64-2.45-2.6,0-4.62.95-6.06,2.84s-2.16,4.52-2.16,7.87v19.08h-10.07v-20.5c0-2.88-.69-5.15-2.06-6.81-1.37-1.66-3.24-2.48-5.6-2.48-2.6,0-4.62.95-6.06,2.84s-2.16,4.52-2.16,7.87v19.08h-10.14V9.58h9.79l.35,11.14h.43c.52-3.83,2.01-6.83,4.47-9.01,2.46-2.18,5.3-3.26,8.51-3.26,3.4,0,6.29,1.1,8.65,3.3s3.67,5.19,3.9,8.97h.43c.52-3.83,2.01-6.83,4.47-9.01s5.32-3.26,8.58-3.26c2.32,0,4.42.53,6.31,1.6,1.89,1.06,3.39,2.61,4.5,4.65Z"/>
      <path class="cls-1" d="M223.66,17.59c1.32,2.93,1.99,6.36,1.99,10.29s-.66,7.35-1.99,10.29c-1.32,2.93-3.16,5.19-5.5,6.77s-5.02,2.38-8.05,2.38-5.89-.96-8.3-2.87c-2.41-1.92-4.14-4.74-5.18-8.48h-.43v23.27h-10.07V9.58h9.79l.28,10.29h.43c1.04-3.78,2.77-6.63,5.18-8.55,2.41-1.92,5.18-2.87,8.3-2.87s5.71.79,8.05,2.38,4.17,3.84,5.5,6.77ZM215.51,27.88c0-3.88-.88-6.92-2.62-9.12-1.75-2.2-4.09-3.3-7.02-3.3s-5.21.97-6.99,2.91c-1.77,1.94-2.66,4.4-2.66,7.38v4.33c0,2.93.89,5.37,2.66,7.31,1.77,1.94,4.1,2.91,6.99,2.91s5.27-1.1,7.02-3.3c1.75-2.2,2.62-5.24,2.62-9.12Z"/>
      <path class="cls-1" d="M242.46,15.82v18.44c0,1.8.35,2.99,1.06,3.58s2.13.89,4.26.89c1.56,0,3.22-.07,4.97-.21v7.73c-3.83.28-6.41.4-7.73.35-4.45,0-7.66-.77-9.65-2.31s-2.98-4.32-2.98-8.33V15.82h-5.75v-6.24h5.75V0h9.58l.28,9.58h10.57v6.24h-10.36Z"/>
      <path class="cls-1" d="M270.55,26.6c4.54.05,7.71-.33,9.51-1.13,1.8-.8,2.7-2.13,2.7-3.97,0-1.47-.61-2.74-1.84-3.83s-3.17-1.63-5.82-1.63-4.87.73-6.38,2.2c-1.51,1.47-2.39,3.43-2.62,5.89h-10c.14-2.88.93-5.51,2.38-7.87s3.56-4.26,6.35-5.67c2.79-1.42,6.2-2.13,10.21-2.13,5.91,0,10.33,1.34,13.27,4.01,2.93,2.67,4.4,6.11,4.4,10.32v23.41h-9.65l-.28-11.42h-.35c-.47,4.02-1.99,7.12-4.54,9.29s-5.79,3.26-9.72,3.26c-3.69,0-6.68-.86-8.97-2.59-2.29-1.73-3.44-4.24-3.44-7.55s1.23-5.91,3.69-7.8c2.46-1.89,6.17-2.81,11.14-2.77ZM271.62,40.72c1.99,0,3.83-.47,5.53-1.42,1.7-.95,3.06-2.2,4.08-3.76,1.02-1.56,1.52-3.22,1.52-4.97v-5.6h-.35c-.24,1.56-.72,2.81-1.45,3.76-.73.95-1.89,1.68-3.48,2.2-1.58.52-3.8.87-6.63,1.06-1.51.09-2.71.52-3.58,1.28-.88.76-1.31,1.77-1.31,3.05,0,1.37.48,2.45,1.45,3.23.97.78,2.38,1.17,4.22,1.17Z"/>
      <path class="cls-1" d="M312.55,26.6c4.54.05,7.71-.33,9.51-1.13,1.8-.8,2.7-2.13,2.7-3.97,0-1.47-.61-2.74-1.84-3.83s-3.17-1.63-5.82-1.63-4.87.73-6.38,2.2c-1.51,1.47-2.39,3.43-2.62,5.89h-10c.14-2.88.93-5.51,2.38-7.87s3.56-4.26,6.35-5.67c2.79-1.42,6.2-2.13,10.21-2.13,5.91,0,10.33,1.34,13.27,4.01,2.93,2.67,4.4,6.11,4.4,10.32v23.41h-9.65l-.28-11.42h-.35c-.47,4.02-1.99,7.12-4.54,9.29s-5.79,3.26-9.72,3.26c-3.69,0-6.68-.86-8.97-2.59-2.29-1.73-3.44-4.24-3.44-7.55s1.23-5.91,3.69-7.8c2.46-1.89,6.17-2.81,11.14-2.77ZM313.61,40.72c1.99,0,3.83-.47,5.53-1.42,1.7-.95,3.06-2.2,4.08-3.76,1.02-1.56,1.52-3.22,1.52-4.97v-5.6h-.35c-.24,1.56-.72,2.81-1.45,3.76-.73.95-1.89,1.68-3.48,2.2-1.58.52-3.8.87-6.63,1.06-1.51.09-2.71.52-3.58,1.28-.88.76-1.31,1.77-1.31,3.05,0,1.37.48,2.45,1.45,3.23.97.78,2.38,1.17,4.22,1.17Z"/>
      <path class="cls-1" d="M353.76,15.82v18.44c0,1.8.35,2.99,1.06,3.58s2.13.89,4.26.89c1.56,0,3.22-.07,4.97-.21v7.73c-3.83.28-6.41.4-7.73.35-4.45,0-7.66-.77-9.65-2.31s-2.98-4.32-2.98-8.33V15.82h-5.75v-6.24h5.75V0h9.58l.28,9.58h10.57v6.24h-10.36Z"/>
    </g>
  </g>
</svg>